<mxfile host="app.diagrams.net" agent="Mozilla/5.0 (Windows NT 10.0; Win64; x64) AppleWebKit/537.36 (KHTML, like Gecko) Chrome/128.0.0.0 YaBrowser/24.10.0.0 Safari/537.36" version="25.0.3">
  <diagram name="Страница — 1" id="yuX5Vx67z8kZ0T_EcEq8">
    <mxGraphModel dx="4167" dy="3086" grid="1" gridSize="10" guides="1" tooltips="1" connect="1" arrows="1" fold="1" page="1" pageScale="1" pageWidth="827" pageHeight="1169" math="0" shadow="0">
      <root>
        <mxCell id="0" />
        <mxCell id="1" parent="0" />
        <mxCell id="CVIY4I8sxwoUZsVOM2Se-1" value="&lt;b&gt;&lt;span style=&quot;font-size:12.0pt;line-height:107%;&lt;br/&gt;font-family:&amp;quot;Times New Roman&amp;quot;,serif;mso-fareast-font-family:Calibri;mso-fareast-theme-font:&lt;br/&gt;minor-latin;mso-ansi-language:RU;mso-fareast-language:EN-US;mso-bidi-language:&lt;br/&gt;AR-SA;mso-bidi-font-style:italic&quot;&gt;Система управления логистикой интернет-магазина&lt;/span&gt;&lt;/b&gt;" style="swimlane;whiteSpace=wrap;html=1;" vertex="1" parent="1">
          <mxGeometry x="-800" y="-30" width="2023" height="1486" as="geometry" />
        </mxCell>
        <mxCell id="CVIY4I8sxwoUZsVOM2Se-2" value="Клиент" style="swimlane;whiteSpace=wrap;html=1;" vertex="1" parent="CVIY4I8sxwoUZsVOM2Se-1">
          <mxGeometry y="24" width="320" height="1456" as="geometry" />
        </mxCell>
        <mxCell id="CVIY4I8sxwoUZsVOM2Se-3" style="edgeStyle=orthogonalEdgeStyle;rounded=0;orthogonalLoop=1;jettySize=auto;html=1;exitX=0.5;exitY=1;exitDx=0;exitDy=0;entryX=0.5;entryY=0;entryDx=0;entryDy=0;" edge="1" parent="CVIY4I8sxwoUZsVOM2Se-2" source="CVIY4I8sxwoUZsVOM2Se-5" target="CVIY4I8sxwoUZsVOM2Se-6">
          <mxGeometry relative="1" as="geometry" />
        </mxCell>
        <mxCell id="CVIY4I8sxwoUZsVOM2Se-4" value="&lt;span style=&quot;line-height: 107%; font-family: &amp;quot;Times New Roman&amp;quot;, serif;&quot;&gt;&lt;font style=&quot;font-size: 12px;&quot;&gt;Клиент создает заказ через сайт&amp;nbsp;&lt;/font&gt;&lt;/span&gt;" style="edgeLabel;html=1;align=center;verticalAlign=middle;resizable=0;points=[];" vertex="1" connectable="0" parent="CVIY4I8sxwoUZsVOM2Se-3">
          <mxGeometry x="-0.1259" relative="1" as="geometry">
            <mxPoint as="offset" />
          </mxGeometry>
        </mxCell>
        <mxCell id="CVIY4I8sxwoUZsVOM2Se-5" value="" style="shape=ellipse;html=1;fillColor=strokeColor;fontSize=18;fontColor=#ffffff;" vertex="1" parent="CVIY4I8sxwoUZsVOM2Se-2">
          <mxGeometry x="100" y="36" width="40" height="40" as="geometry" />
        </mxCell>
        <mxCell id="CVIY4I8sxwoUZsVOM2Se-6" value="Формирование&amp;nbsp; заказа" style="shape=rect;rounded=1;html=1;whiteSpace=wrap;align=center;" vertex="1" parent="CVIY4I8sxwoUZsVOM2Se-2">
          <mxGeometry x="70" y="136" width="100" height="40" as="geometry" />
        </mxCell>
        <mxCell id="CVIY4I8sxwoUZsVOM2Se-7" value="" style="html=1;points=[[0,0,0,0,5],[0,1,0,0,-5],[1,0,0,0,5],[1,1,0,0,-5]];perimeter=orthogonalPerimeter;outlineConnect=0;targetShapes=umlLifeline;portConstraint=eastwest;newEdgeStyle={&quot;curved&quot;:0,&quot;rounded&quot;:0};rotation=90;fillColor=#000000;" vertex="1" parent="CVIY4I8sxwoUZsVOM2Se-2">
          <mxGeometry x="100" y="396" width="10" height="80" as="geometry" />
        </mxCell>
        <mxCell id="CVIY4I8sxwoUZsVOM2Se-8" value="&lt;font face=&quot;Times New Roman, serif&quot;&gt;Онлайн оплата&lt;/font&gt;" style="shape=rect;rounded=1;html=1;whiteSpace=wrap;align=center;" vertex="1" parent="CVIY4I8sxwoUZsVOM2Se-2">
          <mxGeometry x="20" y="516" width="100" height="40" as="geometry" />
        </mxCell>
        <mxCell id="CVIY4I8sxwoUZsVOM2Se-9" style="edgeStyle=orthogonalEdgeStyle;rounded=0;orthogonalLoop=1;jettySize=auto;html=1;curved=0;exitX=1;exitY=1;exitDx=0;exitDy=-5;exitPerimeter=0;entryX=0.5;entryY=0;entryDx=0;entryDy=0;" edge="1" parent="CVIY4I8sxwoUZsVOM2Se-2" source="CVIY4I8sxwoUZsVOM2Se-7" target="CVIY4I8sxwoUZsVOM2Se-8">
          <mxGeometry relative="1" as="geometry" />
        </mxCell>
        <mxCell id="CVIY4I8sxwoUZsVOM2Se-10" value="&lt;font face=&quot;Times New Roman, serif&quot;&gt;при доставке&lt;/font&gt;" style="shape=rect;rounded=1;html=1;whiteSpace=wrap;align=center;" vertex="1" parent="CVIY4I8sxwoUZsVOM2Se-2">
          <mxGeometry x="190" y="486" width="100" height="40" as="geometry" />
        </mxCell>
        <mxCell id="CVIY4I8sxwoUZsVOM2Se-11" style="edgeStyle=orthogonalEdgeStyle;rounded=0;orthogonalLoop=1;jettySize=auto;html=1;curved=0;exitX=1;exitY=0;exitDx=0;exitDy=5;exitPerimeter=0;entryX=0.5;entryY=0;entryDx=0;entryDy=0;" edge="1" parent="CVIY4I8sxwoUZsVOM2Se-2" source="CVIY4I8sxwoUZsVOM2Se-7" target="CVIY4I8sxwoUZsVOM2Se-10">
          <mxGeometry relative="1" as="geometry" />
        </mxCell>
        <mxCell id="CVIY4I8sxwoUZsVOM2Se-12" value="&lt;font face=&quot;Times New Roman, serif&quot;&gt;Отправить уведомление клиенту&lt;/font&gt;" style="shape=rect;rounded=1;html=1;whiteSpace=wrap;align=center;" vertex="1" parent="CVIY4I8sxwoUZsVOM2Se-2">
          <mxGeometry x="80" y="716" width="100" height="40" as="geometry" />
        </mxCell>
        <mxCell id="CVIY4I8sxwoUZsVOM2Se-13" style="edgeStyle=orthogonalEdgeStyle;rounded=0;orthogonalLoop=1;jettySize=auto;html=1;entryX=0;entryY=1;entryDx=0;entryDy=-5;entryPerimeter=0;exitX=0;exitY=0.5;exitDx=0;exitDy=0;" edge="1" parent="CVIY4I8sxwoUZsVOM2Se-2" source="CVIY4I8sxwoUZsVOM2Se-12" target="CVIY4I8sxwoUZsVOM2Se-7">
          <mxGeometry relative="1" as="geometry">
            <mxPoint x="60" y="736" as="sourcePoint" />
            <Array as="points">
              <mxPoint x="10" y="736" />
              <mxPoint x="10" y="411" />
              <mxPoint x="70" y="411" />
            </Array>
          </mxGeometry>
        </mxCell>
        <mxCell id="CVIY4I8sxwoUZsVOM2Se-14" value="&lt;font face=&quot;Times New Roman, serif&quot;&gt;Отправить уведомление клиенту&lt;/font&gt;" style="shape=rect;rounded=1;html=1;whiteSpace=wrap;align=center;" vertex="1" parent="CVIY4I8sxwoUZsVOM2Se-2">
          <mxGeometry x="90" y="996" width="100" height="40" as="geometry" />
        </mxCell>
        <mxCell id="CVIY4I8sxwoUZsVOM2Se-15" value="" style="shape=mxgraph.sysml.actFinal;html=1;verticalLabelPosition=bottom;labelBackgroundColor=#ffffff;verticalAlign=top;" vertex="1" parent="CVIY4I8sxwoUZsVOM2Se-2">
          <mxGeometry x="120" y="1175" width="40" height="40" as="geometry" />
        </mxCell>
        <mxCell id="CVIY4I8sxwoUZsVOM2Se-16" style="edgeStyle=orthogonalEdgeStyle;rounded=0;orthogonalLoop=1;jettySize=auto;html=1;entryX=0.5;entryY=0;entryDx=0;entryDy=0;entryPerimeter=0;" edge="1" parent="CVIY4I8sxwoUZsVOM2Se-2" source="CVIY4I8sxwoUZsVOM2Se-14" target="CVIY4I8sxwoUZsVOM2Se-15">
          <mxGeometry relative="1" as="geometry" />
        </mxCell>
        <mxCell id="CVIY4I8sxwoUZsVOM2Se-17" value="&lt;font face=&quot;Times New Roman, serif&quot;&gt;&lt;span style=&quot;font-size: 11px;&quot;&gt;Клиент подверждает получение&lt;/span&gt;&lt;/font&gt;" style="shape=rect;rounded=1;html=1;whiteSpace=wrap;align=center;" vertex="1" parent="CVIY4I8sxwoUZsVOM2Se-2">
          <mxGeometry x="110" y="1296" width="100" height="40" as="geometry" />
        </mxCell>
        <mxCell id="CVIY4I8sxwoUZsVOM2Se-18" value="&lt;span style=&quot;font-size:12.0pt;line-height:107%;&lt;br/&gt;font-family:&amp;quot;Times New Roman&amp;quot;,serif;mso-fareast-font-family:Calibri;mso-fareast-theme-font:&lt;br/&gt;minor-latin;mso-ansi-language:RU;mso-fareast-language:EN-US;mso-bidi-language:&lt;br/&gt;AR-SA;mso-bidi-font-style:italic&quot;&gt;Система&lt;/span&gt;" style="swimlane;whiteSpace=wrap;html=1;" vertex="1" parent="CVIY4I8sxwoUZsVOM2Se-1">
          <mxGeometry x="320" y="24" width="460" height="1456" as="geometry" />
        </mxCell>
        <mxCell id="CVIY4I8sxwoUZsVOM2Se-19" value="&lt;span style=&quot;font-family: &amp;quot;Times New Roman&amp;quot;, serif; font-size: 11px; text-wrap-mode: nowrap; background-color: rgb(255, 255, 255);&quot;&gt;Система&lt;/span&gt;&lt;div&gt;&lt;span style=&quot;font-family: &amp;quot;Times New Roman&amp;quot;, serif; font-size: 11px; text-wrap-mode: nowrap; background-color: rgb(255, 255, 255);&quot;&gt;&amp;nbsp;проверяет&amp;nbsp;&lt;/span&gt;&lt;/div&gt;&lt;div&gt;&lt;span style=&quot;font-family: &amp;quot;Times New Roman&amp;quot;, serif; font-size: 11px; text-wrap-mode: nowrap; background-color: rgb(255, 255, 255);&quot;&gt;наличие&amp;nbsp;&lt;/span&gt;&lt;/div&gt;&lt;div&gt;&lt;span style=&quot;font-family: &amp;quot;Times New Roman&amp;quot;, serif; font-size: 11px; text-wrap-mode: nowrap; background-color: rgb(255, 255, 255);&quot;&gt;товаров&amp;nbsp;&lt;/span&gt;&lt;/div&gt;" style="rhombus;whiteSpace=wrap;html=1;align=center;" vertex="1" parent="CVIY4I8sxwoUZsVOM2Se-18">
          <mxGeometry x="147" y="186" width="97" height="100" as="geometry" />
        </mxCell>
        <mxCell id="CVIY4I8sxwoUZsVOM2Se-20" value="&lt;div style=&quot;&quot;&gt;&lt;span style=&quot;font-size: 11px; background-color: initial;&quot;&gt;Отправить уведомление клиенту&lt;/span&gt;&lt;/div&gt;" style="shape=rect;rounded=1;html=1;whiteSpace=wrap;align=center;" vertex="1" parent="CVIY4I8sxwoUZsVOM2Se-18">
          <mxGeometry x="7" y="286" width="100" height="50" as="geometry" />
        </mxCell>
        <mxCell id="CVIY4I8sxwoUZsVOM2Se-21" style="edgeStyle=orthogonalEdgeStyle;rounded=0;orthogonalLoop=1;jettySize=auto;html=1;entryX=0.5;entryY=0;entryDx=0;entryDy=0;" edge="1" parent="CVIY4I8sxwoUZsVOM2Se-18" source="CVIY4I8sxwoUZsVOM2Se-19" target="CVIY4I8sxwoUZsVOM2Se-20">
          <mxGeometry relative="1" as="geometry">
            <mxPoint x="-100" y="276" as="targetPoint" />
          </mxGeometry>
        </mxCell>
        <mxCell id="CVIY4I8sxwoUZsVOM2Se-22" value="&lt;span style=&quot;line-height: 107%; font-family: &amp;quot;Times New Roman&amp;quot;, serif;&quot;&gt;&lt;font&gt;товары не в наличии&lt;/font&gt;&lt;/span&gt;" style="edgeLabel;html=1;align=center;verticalAlign=middle;resizable=0;points=[];" vertex="1" connectable="0" parent="CVIY4I8sxwoUZsVOM2Se-21">
          <mxGeometry x="-0.1968" y="-2" relative="1" as="geometry">
            <mxPoint as="offset" />
          </mxGeometry>
        </mxCell>
        <mxCell id="CVIY4I8sxwoUZsVOM2Se-23" value="&lt;span style=&quot;line-height: 107%; font-family: &amp;quot;Times New Roman&amp;quot;, serif;&quot;&gt;&lt;font&gt;&amp;nbsp;заказ&lt;br/&gt;подтверждается&lt;/font&gt;&lt;/span&gt;" style="shape=rect;rounded=1;html=1;whiteSpace=wrap;align=center;" vertex="1" parent="CVIY4I8sxwoUZsVOM2Se-18">
          <mxGeometry x="300" y="326" width="100" height="40" as="geometry" />
        </mxCell>
        <mxCell id="CVIY4I8sxwoUZsVOM2Se-24" style="edgeStyle=orthogonalEdgeStyle;rounded=0;orthogonalLoop=1;jettySize=auto;html=1;entryX=0.574;entryY=-0.015;entryDx=0;entryDy=0;entryPerimeter=0;" edge="1" parent="CVIY4I8sxwoUZsVOM2Se-18" source="CVIY4I8sxwoUZsVOM2Se-19" target="CVIY4I8sxwoUZsVOM2Se-23">
          <mxGeometry relative="1" as="geometry" />
        </mxCell>
        <mxCell id="CVIY4I8sxwoUZsVOM2Se-25" value="товары в наличии" style="edgeLabel;html=1;align=center;verticalAlign=middle;resizable=0;points=[];" vertex="1" connectable="0" parent="CVIY4I8sxwoUZsVOM2Se-24">
          <mxGeometry x="-0.2844" y="2" relative="1" as="geometry">
            <mxPoint as="offset" />
          </mxGeometry>
        </mxCell>
        <mxCell id="CVIY4I8sxwoUZsVOM2Se-26" style="edgeStyle=orthogonalEdgeStyle;rounded=0;orthogonalLoop=1;jettySize=auto;html=1;" edge="1" parent="CVIY4I8sxwoUZsVOM2Se-18" source="CVIY4I8sxwoUZsVOM2Se-27">
          <mxGeometry relative="1" as="geometry">
            <mxPoint x="190.00000000000045" y="1376.0000000000005" as="targetPoint" />
          </mxGeometry>
        </mxCell>
        <mxCell id="CVIY4I8sxwoUZsVOM2Se-27" value="&lt;span style=&quot;line-height: 107%; font-family: &amp;quot;Times New Roman&amp;quot;, serif;&quot;&gt;&lt;font&gt;завершает заказ и отправляет электронный чек&lt;/font&gt;&lt;/span&gt;" style="shape=rect;rounded=1;html=1;whiteSpace=wrap;align=center;" vertex="1" parent="CVIY4I8sxwoUZsVOM2Se-18">
          <mxGeometry x="140" y="1296" width="100" height="40" as="geometry" />
        </mxCell>
        <mxCell id="CVIY4I8sxwoUZsVOM2Se-28" value="" style="shape=mxgraph.sysml.actFinal;html=1;verticalLabelPosition=bottom;labelBackgroundColor=#ffffff;verticalAlign=top;" vertex="1" parent="CVIY4I8sxwoUZsVOM2Se-18">
          <mxGeometry x="170" y="1376" width="40" height="40" as="geometry" />
        </mxCell>
        <mxCell id="CVIY4I8sxwoUZsVOM2Se-29" value="&lt;span style=&quot;font-size: 16px;&quot;&gt;Платежный шлюз&lt;/span&gt;" style="swimlane;whiteSpace=wrap;html=1;startSize=23;" vertex="1" parent="CVIY4I8sxwoUZsVOM2Se-1">
          <mxGeometry x="780" y="24" width="350" height="1456" as="geometry" />
        </mxCell>
        <mxCell id="CVIY4I8sxwoUZsVOM2Se-30" value="Проверка оплаты" style="rhombus;whiteSpace=wrap;html=1;" vertex="1" parent="CVIY4I8sxwoUZsVOM2Se-29">
          <mxGeometry x="140" y="576" width="80" height="80" as="geometry" />
        </mxCell>
        <mxCell id="CVIY4I8sxwoUZsVOM2Se-31" value="&lt;span style=&quot;font-size:12.0pt;line-height:107%;&amp;lt;br/&amp;gt;font-family:&amp;quot;Times New Roman&amp;quot;,serif;mso-fareast-font-family:Calibri;mso-fareast-theme-font:&amp;lt;br/&amp;gt;minor-latin;mso-ansi-language:RU;mso-fareast-language:EN-US;mso-bidi-language:&amp;lt;br/&amp;gt;AR-SA;mso-bidi-font-style:italic&quot;&gt;Склад&lt;/span&gt;" style="swimlane;whiteSpace=wrap;html=1;startSize=23;" vertex="1" parent="CVIY4I8sxwoUZsVOM2Se-1">
          <mxGeometry x="1130" y="24" width="470" height="1456" as="geometry" />
        </mxCell>
        <mxCell id="CVIY4I8sxwoUZsVOM2Se-32" value="&lt;span style=&quot;line-height: 107%; font-family: &amp;quot;Times New Roman&amp;quot;, serif;&quot; lang=&quot;EN-US&quot;&gt;&lt;font&gt;Склад начинает сборку&lt;br/&gt;заказа&lt;/font&gt;&lt;/span&gt;" style="shape=rect;rounded=1;html=1;whiteSpace=wrap;align=center;" vertex="1" parent="CVIY4I8sxwoUZsVOM2Se-31">
          <mxGeometry x="34" y="656" width="100" height="40" as="geometry" />
        </mxCell>
        <mxCell id="CVIY4I8sxwoUZsVOM2Se-33" value="Выбор доставки" style="rhombus;whiteSpace=wrap;html=1;" vertex="1" parent="CVIY4I8sxwoUZsVOM2Se-31">
          <mxGeometry x="240" y="766" width="80" height="80" as="geometry" />
        </mxCell>
        <mxCell id="CVIY4I8sxwoUZsVOM2Se-34" style="edgeStyle=orthogonalEdgeStyle;rounded=0;orthogonalLoop=1;jettySize=auto;html=1;entryX=0.5;entryY=0;entryDx=0;entryDy=0;" edge="1" parent="CVIY4I8sxwoUZsVOM2Se-31" source="CVIY4I8sxwoUZsVOM2Se-32" target="CVIY4I8sxwoUZsVOM2Se-33">
          <mxGeometry relative="1" as="geometry" />
        </mxCell>
        <mxCell id="CVIY4I8sxwoUZsVOM2Se-35" style="edgeStyle=orthogonalEdgeStyle;rounded=0;orthogonalLoop=1;jettySize=auto;html=1;exitX=1;exitY=0.5;exitDx=0;exitDy=0;entryX=0.5;entryY=0;entryDx=0;entryDy=0;" edge="1" parent="CVIY4I8sxwoUZsVOM2Se-1" source="CVIY4I8sxwoUZsVOM2Se-6" target="CVIY4I8sxwoUZsVOM2Se-19">
          <mxGeometry relative="1" as="geometry" />
        </mxCell>
        <mxCell id="CVIY4I8sxwoUZsVOM2Se-36" style="edgeStyle=orthogonalEdgeStyle;rounded=0;orthogonalLoop=1;jettySize=auto;html=1;exitX=0;exitY=0.5;exitDx=0;exitDy=0;entryX=0;entryY=0.5;entryDx=0;entryDy=0;" edge="1" parent="CVIY4I8sxwoUZsVOM2Se-1" source="CVIY4I8sxwoUZsVOM2Se-20" target="CVIY4I8sxwoUZsVOM2Se-6">
          <mxGeometry relative="1" as="geometry" />
        </mxCell>
        <mxCell id="CVIY4I8sxwoUZsVOM2Se-37" style="edgeStyle=orthogonalEdgeStyle;rounded=0;orthogonalLoop=1;jettySize=auto;html=1;entryX=-0.28;entryY=0.497;entryDx=0;entryDy=0;entryPerimeter=0;" edge="1" parent="CVIY4I8sxwoUZsVOM2Se-1" source="CVIY4I8sxwoUZsVOM2Se-23" target="CVIY4I8sxwoUZsVOM2Se-7">
          <mxGeometry relative="1" as="geometry">
            <mxPoint x="550" y="460" as="targetPoint" />
            <Array as="points">
              <mxPoint x="550" y="428" />
              <mxPoint x="550" y="428" />
            </Array>
          </mxGeometry>
        </mxCell>
        <mxCell id="CVIY4I8sxwoUZsVOM2Se-38" value="&lt;span style=&quot;line-height: 107%; font-family: &amp;quot;Times New Roman&amp;quot;, serif;&quot;&gt;&lt;font&gt;Клиент выбирает способ оплаты&amp;nbsp;&lt;/font&gt;&lt;/span&gt;" style="edgeLabel;html=1;align=center;verticalAlign=middle;resizable=0;points=[];" vertex="1" connectable="0" parent="CVIY4I8sxwoUZsVOM2Se-37">
          <mxGeometry x="-0.385" relative="1" as="geometry">
            <mxPoint as="offset" />
          </mxGeometry>
        </mxCell>
        <mxCell id="CVIY4I8sxwoUZsVOM2Se-39" value="" style="edgeStyle=orthogonalEdgeStyle;rounded=0;orthogonalLoop=1;jettySize=auto;html=1;entryX=0.5;entryY=0;entryDx=0;entryDy=0;" edge="1" parent="CVIY4I8sxwoUZsVOM2Se-1" source="CVIY4I8sxwoUZsVOM2Se-8" target="CVIY4I8sxwoUZsVOM2Se-30">
          <mxGeometry relative="1" as="geometry">
            <mxPoint x="387" y="620" as="targetPoint" />
            <Array as="points">
              <mxPoint x="960" y="560" />
            </Array>
          </mxGeometry>
        </mxCell>
        <mxCell id="CVIY4I8sxwoUZsVOM2Se-40" value="Проверка оплаты" style="edgeLabel;html=1;align=center;verticalAlign=middle;resizable=0;points=[];" vertex="1" connectable="0" parent="CVIY4I8sxwoUZsVOM2Se-39">
          <mxGeometry x="-0.3058" y="1" relative="1" as="geometry">
            <mxPoint as="offset" />
          </mxGeometry>
        </mxCell>
        <mxCell id="CVIY4I8sxwoUZsVOM2Se-41" style="edgeStyle=orthogonalEdgeStyle;rounded=0;orthogonalLoop=1;jettySize=auto;html=1;entryX=0.5;entryY=0;entryDx=0;entryDy=0;" edge="1" parent="CVIY4I8sxwoUZsVOM2Se-1" source="CVIY4I8sxwoUZsVOM2Se-30" target="CVIY4I8sxwoUZsVOM2Se-32">
          <mxGeometry relative="1" as="geometry" />
        </mxCell>
        <mxCell id="CVIY4I8sxwoUZsVOM2Se-42" value="Олата прошла" style="edgeLabel;html=1;align=center;verticalAlign=middle;resizable=0;points=[];" vertex="1" connectable="0" parent="CVIY4I8sxwoUZsVOM2Se-41">
          <mxGeometry x="-0.2534" relative="1" as="geometry">
            <mxPoint as="offset" />
          </mxGeometry>
        </mxCell>
        <mxCell id="CVIY4I8sxwoUZsVOM2Se-43" value="&lt;span style=&quot;font-size:12.0pt;line-height:107%;&lt;br/&gt;font-family:&amp;quot;Times New Roman&amp;quot;,serif;mso-fareast-font-family:Calibri;mso-fareast-theme-font:&lt;br/&gt;minor-latin;mso-ansi-language:RU;mso-fareast-language:EN-US;mso-bidi-language:&lt;br/&gt;AR-SA;mso-bidi-font-style:italic&quot;&gt;Курьерская служба&lt;/span&gt;" style="swimlane;whiteSpace=wrap;html=1;" vertex="1" parent="CVIY4I8sxwoUZsVOM2Se-1">
          <mxGeometry x="1600" y="30" width="423" height="1456" as="geometry" />
        </mxCell>
        <mxCell id="CVIY4I8sxwoUZsVOM2Se-44" style="edgeStyle=orthogonalEdgeStyle;rounded=0;orthogonalLoop=1;jettySize=auto;html=1;" edge="1" parent="CVIY4I8sxwoUZsVOM2Se-43" source="CVIY4I8sxwoUZsVOM2Se-45" target="CVIY4I8sxwoUZsVOM2Se-46">
          <mxGeometry relative="1" as="geometry" />
        </mxCell>
        <mxCell id="CVIY4I8sxwoUZsVOM2Se-45" value="&lt;span style=&quot;line-height: 107%; font-family: &amp;quot;Times New Roman&amp;quot;, serif;&quot;&gt;&lt;font style=&quot;font-size: 11px;&quot;&gt;отправить заявку в службу доставки&lt;/font&gt;&lt;/span&gt;" style="shape=rect;rounded=1;html=1;whiteSpace=wrap;align=center;" vertex="1" parent="CVIY4I8sxwoUZsVOM2Se-43">
          <mxGeometry x="70" y="856" width="100" height="40" as="geometry" />
        </mxCell>
        <mxCell id="CVIY4I8sxwoUZsVOM2Se-46" value="&lt;span style=&quot;line-height: 107%; font-family: &amp;quot;Times New Roman&amp;quot;, serif;&quot; lang=&quot;EN-US&quot;&gt;&lt;font&gt;Курьер доставляет&lt;br/&gt;товар клиенту&lt;/font&gt;&lt;/span&gt;" style="shape=rect;rounded=1;html=1;whiteSpace=wrap;align=center;" vertex="1" parent="CVIY4I8sxwoUZsVOM2Se-43">
          <mxGeometry x="70" y="950" width="100" height="40" as="geometry" />
        </mxCell>
        <mxCell id="CVIY4I8sxwoUZsVOM2Se-47" style="edgeStyle=orthogonalEdgeStyle;rounded=0;orthogonalLoop=1;jettySize=auto;html=1;entryX=0.5;entryY=0;entryDx=0;entryDy=0;" edge="1" parent="CVIY4I8sxwoUZsVOM2Se-1" source="CVIY4I8sxwoUZsVOM2Se-30" target="CVIY4I8sxwoUZsVOM2Se-12">
          <mxGeometry relative="1" as="geometry" />
        </mxCell>
        <mxCell id="CVIY4I8sxwoUZsVOM2Se-48" value="Оплата не прошла" style="edgeLabel;html=1;align=center;verticalAlign=middle;resizable=0;points=[];" vertex="1" connectable="0" parent="CVIY4I8sxwoUZsVOM2Se-47">
          <mxGeometry x="-0.3246" y="-1" relative="1" as="geometry">
            <mxPoint as="offset" />
          </mxGeometry>
        </mxCell>
        <mxCell id="CVIY4I8sxwoUZsVOM2Se-49" style="edgeStyle=orthogonalEdgeStyle;rounded=0;orthogonalLoop=1;jettySize=auto;html=1;entryX=0.5;entryY=0;entryDx=0;entryDy=0;" edge="1" parent="CVIY4I8sxwoUZsVOM2Se-1" source="CVIY4I8sxwoUZsVOM2Se-33" target="CVIY4I8sxwoUZsVOM2Se-14">
          <mxGeometry relative="1" as="geometry" />
        </mxCell>
        <mxCell id="CVIY4I8sxwoUZsVOM2Se-50" value="Если самовызов" style="edgeLabel;html=1;align=center;verticalAlign=middle;resizable=0;points=[];" vertex="1" connectable="0" parent="CVIY4I8sxwoUZsVOM2Se-49">
          <mxGeometry x="-0.1505" y="2" relative="1" as="geometry">
            <mxPoint as="offset" />
          </mxGeometry>
        </mxCell>
        <mxCell id="CVIY4I8sxwoUZsVOM2Se-51" style="edgeStyle=orthogonalEdgeStyle;rounded=0;orthogonalLoop=1;jettySize=auto;html=1;" edge="1" parent="CVIY4I8sxwoUZsVOM2Se-1" source="CVIY4I8sxwoUZsVOM2Se-33" target="CVIY4I8sxwoUZsVOM2Se-45">
          <mxGeometry relative="1" as="geometry" />
        </mxCell>
        <mxCell id="CVIY4I8sxwoUZsVOM2Se-52" value="Если курерская служба" style="edgeLabel;html=1;align=center;verticalAlign=middle;resizable=0;points=[];" vertex="1" connectable="0" parent="CVIY4I8sxwoUZsVOM2Se-51">
          <mxGeometry x="-0.3935" y="-2" relative="1" as="geometry">
            <mxPoint as="offset" />
          </mxGeometry>
        </mxCell>
        <mxCell id="CVIY4I8sxwoUZsVOM2Se-53" style="edgeStyle=orthogonalEdgeStyle;rounded=0;orthogonalLoop=1;jettySize=auto;html=1;entryX=0.5;entryY=0;entryDx=0;entryDy=0;" edge="1" parent="CVIY4I8sxwoUZsVOM2Se-1" source="CVIY4I8sxwoUZsVOM2Se-46" target="CVIY4I8sxwoUZsVOM2Se-17">
          <mxGeometry relative="1" as="geometry">
            <Array as="points">
              <mxPoint x="1720" y="1260" />
              <mxPoint x="160" y="1260" />
            </Array>
          </mxGeometry>
        </mxCell>
        <mxCell id="CVIY4I8sxwoUZsVOM2Se-54" style="edgeStyle=orthogonalEdgeStyle;rounded=0;orthogonalLoop=1;jettySize=auto;html=1;entryX=0;entryY=0.5;entryDx=0;entryDy=0;" edge="1" parent="CVIY4I8sxwoUZsVOM2Se-1" source="CVIY4I8sxwoUZsVOM2Se-17" target="CVIY4I8sxwoUZsVOM2Se-27">
          <mxGeometry relative="1" as="geometry" />
        </mxCell>
        <mxCell id="CVIY4I8sxwoUZsVOM2Se-55" style="edgeStyle=orthogonalEdgeStyle;rounded=0;orthogonalLoop=1;jettySize=auto;html=1;entryX=0.5;entryY=0;entryDx=0;entryDy=0;" edge="1" parent="CVIY4I8sxwoUZsVOM2Se-1" source="CVIY4I8sxwoUZsVOM2Se-10" target="CVIY4I8sxwoUZsVOM2Se-27">
          <mxGeometry relative="1" as="geometry" />
        </mxCell>
      </root>
    </mxGraphModel>
  </diagram>
</mxfile>
